<svg width="356" height="192" viewBox="0 0 356 192" fill="none" xmlns="http://www.w3.org/2000/svg">
<mask id="mask0_2001_42" style="mask-type:luminance" maskUnits="userSpaceOnUse" x="0" y="0" width="356" height="192">
<path d="M355.5 0.209473H0.5V191.98H355.5V0.209473Z" fill="white"/>
</mask>
<g mask="url(#mask0_2001_42)">
<path opacity="0.12" d="M-4.77227 14.1448C-6.50822 28.102 -0.479937 43.5189 8.16076 54.6151L45.4286 102.468C54.0693 113.564 66.7677 120.774 80.7228 122.509L400.833 162.333" stroke="#B6EA00" stroke-width="3.55" stroke-miterlimit="10"/>
<path opacity="0.25" d="M-6.15294 21.2343C-7.88889 35.1915 -4.00874 49.2659 4.63196 60.3621L41.8999 108.215C50.5406 119.311 63.2389 126.521 77.194 128.257L397.305 168.08" stroke="#B6EA00" stroke-width="3.55" stroke-miterlimit="10"/>
<path opacity="0.38" d="M-9.67802 26.9812C-11.414 40.9385 -7.53382 55.0129 1.10688 66.1091L38.3748 113.962C47.0155 125.058 59.7138 132.268 73.6688 134.004L393.779 173.827" stroke="#B6EA00" stroke-width="3.55" stroke-miterlimit="10"/>
<path opacity="0.5" d="M-13.2067 32.728C-14.9427 46.6853 -11.0625 60.7597 -2.42181 71.8559L34.8461 119.709C43.4868 130.805 56.1851 138.014 70.1402 139.75L390.251 179.574" stroke="#B6EA00" stroke-width="3.55" stroke-miterlimit="10"/>
<path opacity="0.62" d="M-16.7354 38.475C-18.4713 52.4322 -14.5912 66.5066 -5.9505 77.6029L31.3174 125.456C39.9581 136.552 52.6565 143.761 66.6115 145.497L386.722 185.321" stroke="#B6EA00" stroke-width="3.55" stroke-miterlimit="10"/>
<path opacity="0.75" d="M-20.2641 44.2219C-22 58.1792 -18.1199 72.2536 -9.47918 83.3498L27.7887 131.203C36.4294 142.299 49.1278 149.508 63.0828 151.244L383.193 191.068" stroke="#B6EA00" stroke-width="3.55" stroke-miterlimit="10"/>
<path opacity="0.88" d="M-23.7928 49.9688C-25.5287 63.926 -21.6486 78.0004 -13.0079 89.0966L24.26 136.95C32.9007 148.046 45.5991 155.255 59.5541 156.991L379.665 196.815" stroke="#B6EA00" stroke-width="3.55" stroke-miterlimit="10"/>
<path d="M-27.3215 55.7157C-29.0574 69.673 -25.1773 83.7474 -16.5366 94.8436L20.7313 142.696C29.372 153.793 42.0704 161.002 56.0254 162.738L376.136 202.561" stroke="#B6EA00" stroke-width="3.55" stroke-miterlimit="10"/>
<path d="M0.146118 118.251L31.6864 153.996C35.1316 157.901 39.8878 160.408 45.056 161.044L196.881 179.731L355.909 192.026H0.146118V118.251Z" fill="#B6EA00"/>
</g>
</svg>
